<?xml version="1.0" encoding="utf-8"?><svg viewBox="0 0 33 33" xmlns="http://www.w3.org/2000/svg" xmlns:xlink="http://www.w3.org/1999/xlink"><style>:root>svg{display:none}:root>svg:target{display:block}</style><svg fill="none" viewBox="0 0 18 18" id="date" xmlns="http://www.w3.org/2000/svg"><path d="M14.25 3H3.75a1.5 1.5 0 00-1.5 1.5V15a1.5 1.5 0 001.5 1.5h10.5a1.5 1.5 0 001.5-1.5V4.5a1.5 1.5 0 00-1.5-1.5z" fill="#fff" stroke="#fff" stroke-width="2" stroke-linecap="round" stroke-linejoin="round"/><path d="M12 1.5v3-3z" fill="#fff"/><path d="M12 1.5v3" stroke="#fff" stroke-width="2" stroke-linecap="round" stroke-linejoin="round"/><path d="M6 1.5v3-3z" fill="#fff"/><path d="M6 1.5v3" stroke="#fff" stroke-width="2" stroke-linecap="round" stroke-linejoin="round"/><path d="M2.25 7.5h13.5-13.5z" fill="#fff"/><path d="M2.25 7.5h13.5" stroke="#fff" stroke-width="2" stroke-linecap="round" stroke-linejoin="round"/></svg><svg fill="none" viewBox="0 0 10 19" id="fb" xmlns="http://www.w3.org/2000/svg"><path d="M9.184 10.375l.492-3.234h-3.13V5.03c0-.914.423-1.758 1.829-1.758h1.441V.496S8.516.25 7.286.25C4.718.25 3.03 1.832 3.03 4.645V7.14H.148v3.234h2.883v7.875h3.516v-7.875h2.637z" fill="#141414"/></svg><svg fill="none" viewBox="0 0 16 16" id="in" xmlns="http://www.w3.org/2000/svg"><path d="M3.64 16V5.488H.372V16h3.27zM1.989 4.082c1.055 0 1.899-.879 1.899-1.934 0-1.02-.844-1.863-1.899-1.863C.968.285.125 1.13.125 2.148c0 1.055.844 1.934 1.863 1.934zM15.84 16h.035v-5.766c0-2.812-.633-4.992-3.938-4.992-1.582 0-2.636.88-3.093 1.688h-.035V5.488h-3.13V16h3.27v-5.203c0-1.371.246-2.672 1.934-2.672 1.687 0 1.723 1.547 1.723 2.777V16h3.234z" fill="#141414"/></svg><svg fill="none" viewBox="0 0 22 22" id="intro" xmlns="http://www.w3.org/2000/svg"><path d="M22 11l-2.44-2.78.34-3.68-3.61-.82L14.4.54 11 2 7.6.54 5.71 3.72l-3.61.81.34 3.68L0 11l2.44 2.78-.34 3.69 3.61.82 1.89 3.18L11 20l3.4 1.46 1.89-3.18 3.61-.82-.34-3.68L22 11zm-10 5h-2v-2h2v2zm0-4h-2V6h2v6z" fill="#5C8692"/></svg><svg fill="none" viewBox="0 0 33 33" id="logo" xmlns="http://www.w3.org/2000/svg"><path d="M16.5 31.75c8.422 0 15.25-6.828 15.25-15.25S24.922 1.25 16.5 1.25 1.25 8.078 1.25 16.5 8.078 31.75 16.5 31.75z" stroke="#7A9CA5" stroke-width="2.5"/><path d="M24.766 12.184c.126 1.305-.347 2.613-1.313 3.637l-5.782 6.147-7.964.766-.67-6.964 5.792-6.14c.966-1.023 2.347-1.68 3.839-1.823l5.218.125.88 4.252zM20 12L5 27M21 18h-7M20 12h-7" stroke="#7A9CA5" stroke-width="2.5" stroke-linecap="round" stroke-linejoin="round"/></svg><svg fill="none" viewBox="0 0 24 25" id="tel" xmlns="http://www.w3.org/2000/svg"><path d="M15.05 5.5A5 5 0 0119 9.45L15.05 5.5zm0-4A9 9 0 0123 9.44L15.05 1.5zM22 17.42v3a2 2 0 01-2.18 2 19.79 19.79 0 01-8.63-3.07 19.5 19.5 0 01-6-6 19.79 19.79 0 01-3.07-8.67A2 2 0 014.11 2.5h3a2 2 0 012 1.72c.127.96.361 1.903.7 2.81a2 2 0 01-.45 2.11l-1.27 1.27a16 16 0 006 6l1.27-1.27a2 2 0 012.11-.45c.907.339 1.85.573 2.81.7A2 2 0 0122 17.42z" stroke="#7A9CA5" stroke-width="2" stroke-linecap="round" stroke-linejoin="round"/></svg><svg fill="none" viewBox="0 0 18 16" id="tw" xmlns="http://www.w3.org/2000/svg"><path d="M16.137 4.594a7.818 7.818 0 001.828-1.899 6.918 6.918 0 01-2.11.563 3.607 3.607 0 001.618-2.04 7.798 7.798 0 01-2.32.915 3.691 3.691 0 00-2.708-1.16 3.69 3.69 0 00-3.691 3.691c0 .281.035.563.105.844A10.71 10.71 0 011.23 1.64a3.59 3.59 0 00-.492 1.863c0 1.266.633 2.39 1.653 3.058-.598-.035-1.196-.175-1.688-.457v.036a3.696 3.696 0 002.953 3.62c-.281.071-.633.141-.949.141-.246 0-.457-.035-.703-.07.457 1.477 1.828 2.531 3.445 2.566A7.422 7.422 0 01.88 13.98c-.317 0-.598-.035-.879-.07 1.617 1.055 3.55 1.652 5.66 1.652 6.785 0 10.477-5.59 10.477-10.476v-.492z" fill="#141414"/></svg></svg>